<?xml version="1.0" encoding="utf-8" ?>
<svg xmlns="http://www.w3.org/2000/svg" xmlns:xlink="http://www.w3.org/1999/xlink" width="1024" height="1024">
	<path fill="#1F56CB" d="M0 0L1024 0L1024 109.232L1024 299.074L1024 315.936L1024 600.704L1024 619.075L1024 631.465L1024 749.046L1024 836.922L1024 1024L832.739 1024L636.246 1024L619.363 1024L618.883 1024L305.876 1024L248.278 1024L92.5352 1024L0 1024L0 749.042L0 630.677L0 534.574L0 458.335L0 288.307L0 85.7229L0 0Z"/>
	<path fill="#FDFDFE" d="M742.245 161.176C755.413 153.392 768.478 149.467 783.635 153.42Q784.953 153.754 786.254 154.153Q787.554 154.552 788.832 155.015Q790.111 155.479 791.365 156.006Q792.618 156.533 793.844 157.121Q795.07 157.71 796.265 158.36Q797.46 159.009 798.621 159.717Q799.782 160.425 800.906 161.191Q802.03 161.956 803.115 162.777Q804.199 163.597 805.241 164.471Q806.284 165.345 807.281 166.27Q808.278 167.194 809.228 168.168Q810.178 169.141 811.078 170.161Q811.977 171.18 812.825 172.244Q813.673 173.307 814.467 174.411Q815.26 175.516 815.998 176.658Q816.735 177.801 817.415 178.979C821.274 185.644 824.511 193.932 824.481 201.712C817.602 200.521 801.703 201.391 793.696 201.355Q756.373 201.059 719.049 201.275Q719.122 200.494 719.211 199.715C721.093 182.801 729.219 171.548 742.245 161.176Z"/>
	<path fill="#1A7DE8" d="M222.216 185.527Q301.516 149.8 380.02 112.355L454.277 78.5424C472.756 70.1381 490.965 61.2078 509.58 53.0975C535.911 65.7667 562.497 77.7308 588.982 90.05L693.879 139.278C709.897 146.809 726.415 153.255 742.245 161.176C729.219 171.548 721.093 182.801 719.211 199.715Q719.122 200.494 719.049 201.275C719.063 208.794 718.905 216.381 719.28 223.892C740.682 223.92 762.109 223.641 783.508 223.957C765.219 234.501 745.424 243.061 726.356 252.109C719.546 255.341 712.265 258.102 705.768 261.912C700.112 251.632 694.767 243.579 686.385 235.276Q684.028 233.04 681.593 230.889C664.599 216.137 644.415 211.065 622.416 212.594C617.072 193.425 603.452 175.883 587.383 164.406C552.885 139.767 502.011 135.867 461.225 142.76C407.684 151.808 351.604 183.633 319.946 228.162C298.716 219.476 277.923 209.788 256.852 200.737L233.688 190.756C229.971 189.146 225.615 187.71 222.216 185.527Z"/>
	<defs>
		<linearGradient id="gradient_0" gradientUnits="userSpaceOnUse" x1="169.46742" y1="186.84518" x2="171.28662" y2="458.43585">
			<stop offset="0" stop-color="#2D8FF8"/>
			<stop offset="1" stop-color="#15C8FA"/>
		</linearGradient>
	</defs>
	<path fill="url(#gradient_0)" d="M0 85.7229C12.4714 91.1369 24.6268 97.1897 37.0312 102.742L154.705 155.595C171.369 163.105 187.857 170.9 204.659 178.112C210.328 180.546 216.057 183.481 221.866 185.473L222.216 185.527C225.615 187.71 229.971 189.146 233.688 190.756L256.852 200.737C277.923 209.788 298.716 219.476 319.946 228.162L314.963 236.205C323.599 230.034 333.647 226.3 343.859 223.624C327.213 243.897 308.305 264.549 282.737 273.04C289.739 323.602 306.818 369.297 333.411 412.74C323.928 419.153 316.31 428.887 314.126 440.303C312.969 446.353 313.01 452.724 312.948 458.866C274.363 458.222 235.715 458.528 197.125 458.513L0 458.335L0 288.307L0 85.7229Z"/>
	<path fill="#1A7DE8" d="M0 85.7229C12.4714 91.1369 24.6268 97.1897 37.0312 102.742L154.705 155.595C171.369 163.105 187.857 170.9 204.659 178.112C210.328 180.546 216.057 183.481 221.866 185.473C213.222 189.209 204.845 193.526 196.313 197.506L150.77 218.688L63.6961 259.101C42.6274 268.981 21.5539 279.527 0 288.307L0 85.7229Z"/>
	<defs>
		<linearGradient id="gradient_1" gradientUnits="userSpaceOnUse" x1="392.21817" y1="167.24423" x2="645.21539" y2="600.40009">
			<stop offset="0" stop-color="#000035"/>
			<stop offset="1" stop-color="#111172"/>
		</linearGradient>
	</defs>
	<path fill="url(#gradient_1)" d="M319.946 228.162C351.604 183.633 407.684 151.808 461.225 142.76C502.011 135.867 552.885 139.767 587.383 164.406C603.452 175.883 617.072 193.425 622.416 212.594C644.415 211.065 664.599 216.137 681.593 230.889Q684.028 233.04 686.385 235.276C694.767 243.579 700.112 251.632 705.768 261.912C708.562 269.182 710.904 276.456 712.079 284.184C718.018 323.247 702.829 373.734 688.103 409.764C696.009 411.727 702.919 418.455 707.005 425.279C713.121 435.493 714.019 446.454 713.42 458.082C710.381 473.871 703.512 488.328 689.794 497.542C681.192 503.318 671.639 505.229 661.4 505.003C661.403 515.098 660.849 525.486 661.319 535.548L661.524 555.749C658.226 559.366 654.891 562.949 651.815 566.758Q641.952 577.807 631.616 588.415C627.805 592.381 622.848 596.603 619.789 601.1Q613.661 607.285 607.671 613.603C600.788 620.536 594.011 627.973 586.542 634.255Q584.697 635.797 582.788 637.258Q580.879 638.72 578.909 640.099Q576.94 641.478 574.913 642.771Q572.886 644.064 570.806 645.27Q568.726 646.475 566.596 647.591Q564.466 648.707 562.29 649.73Q560.115 650.754 557.898 651.684Q555.68 652.614 553.425 653.448Q551.17 654.282 548.882 655.019Q546.593 655.756 544.275 656.395Q541.957 657.034 539.614 657.573Q537.271 658.112 534.907 658.55Q532.543 658.989 530.163 659.326Q527.782 659.663 525.389 659.898Q522.996 660.133 520.596 660.266Q518.195 660.399 515.791 660.429C501.695 660.476 487.744 657.024 474.779 651.638C460.721 644.8 449.037 634.076 437.292 623.971L418.345 607.971C405.702 595.325 389.714 586.087 377.251 573.381C374.963 571.047 372.752 568.215 371.773 565.06C369.645 558.196 370.931 542.118 370.976 534.556C370.857 523.881 370.924 513.227 370.538 502.554C366.66 503.426 362.888 503.993 358.903 504.015C346.364 504.081 333.291 499.628 324.306 490.682C315.154 481.57 312.889 471.37 312.948 458.866C313.01 452.724 312.969 446.353 314.126 440.303C316.31 428.887 323.928 419.153 333.411 412.74C306.818 369.297 289.739 323.602 282.737 273.04C308.305 264.549 327.213 243.897 343.859 223.624C333.647 226.3 323.599 230.034 314.963 236.205L319.946 228.162Z"/>
	<path fill="#F5DAD5" d="M510.65 504.5C511.749 505.215 512.302 505.8 513.645 505.878C514.231 505.07 514.83 504.232 515.544 503.53C518.507 500.619 523.061 501.062 526.873 501.033C529.387 502.465 531.453 505.026 534.221 505.764C535.871 505.633 536.694 504.627 537.837 503.557L538.028 504.595Q537.131 505.52 536.217 506.428C538.346 506.508 540.48 506.509 542.61 506.539L542.717 506.818C541.543 506.815 540.159 506.595 539.118 507.158C535.886 507.435 532.379 507.566 529.339 508.792C525.221 510.453 522.962 514.532 521.21 518.339C520.616 517.002 520.079 515.579 519.341 514.314C517.05 510.389 513.902 508.031 509.516 506.955L511.166 506.259L510.65 504.5Z"/>
	<path fill="#BE98D1" d="M462.472 541.754C463.979 539.866 465.603 538.156 467.342 536.482C478.103 526.121 486.764 527.25 500.699 527.476C497.115 529.418 483.608 536.423 482.018 539.452L478.998 539.719C474.422 539.013 467.474 541.523 462.472 541.754Z"/>
	<path fill="#F5DAD5" d="M661.271 414.544C669.395 409.345 675.312 407.658 685.09 408.771L688.103 409.764C696.009 411.727 702.919 418.455 707.005 425.279C713.121 435.493 714.019 446.454 713.42 458.082C710.381 473.871 703.512 488.328 689.794 497.542C681.192 503.318 671.639 505.229 661.4 505.003Q661.183 497.007 661.335 489.009C661.866 468.507 660.943 447.83 661.007 427.3C661.016 423.186 660.511 418.573 661.271 414.544Z"/>
	<path fill="#978DD2" d="M661.007 427.3C668.953 425.135 677.271 422.005 685.047 426.401C690.455 429.459 694.075 434.763 695.62 440.713C698.381 451.346 696.118 464.212 690.443 473.54C686.211 480.498 679.223 486.695 671.155 488.546C667.932 489.285 664.615 489.127 661.335 489.009C661.866 468.507 660.943 447.83 661.007 427.3Z"/>
	<path fill="#F5DAD5" d="M500.699 527.476L528.264 527.409C545.731 527.359 560.376 527.247 573.706 540.324C578.144 544.676 580.917 549.78 583.357 555.434C575.188 563.606 567.035 571.983 558.333 579.582C550.514 569.574 540.665 562.749 527.781 561.192C518.409 560.059 507.326 561.54 499.713 567.499C495.191 571.038 491.891 575.694 487.721 579.562C475.461 575.423 463.182 564.618 453.575 556.069C455.967 550.719 458.847 546.352 462.472 541.754C467.474 541.523 474.422 539.013 478.998 539.719L482.018 539.452C483.608 536.423 497.115 529.418 500.699 527.476Z"/>
	<path fill="#040972" d="M482.018 539.452L534.729 539.406C540.557 539.38 549.775 538.457 555.011 539.094C556.046 539.22 556.641 539.635 557.358 540.349C557.722 541.769 557.676 542.043 557.289 543.465C556.244 544.524 553.67 544.283 552.167 544.3C543.364 544.398 482.273 544.317 479.248 542.973C478.556 541.922 478.571 541.793 478.812 540.502C478.861 540.238 478.936 539.98 478.998 539.719L482.018 539.452Z"/>
	<path fill="#BE98D1" d="M333.411 412.74C341.211 408.471 349.299 405.944 358.214 408.582C362.834 409.949 367.097 412.439 370.262 416.107Q370.443 424.562 370.07 433.01L369.924 463.578C369.908 468.897 369.331 475.208 370.362 480.399C370.469 487.777 370.331 495.183 370.538 502.554C366.66 503.426 362.888 503.993 358.903 504.015C346.364 504.081 333.291 499.628 324.306 490.682C315.154 481.57 312.889 471.37 312.948 458.866C313.01 452.724 312.969 446.353 314.126 440.303C316.31 428.887 323.928 419.153 333.411 412.74Z"/>
	<path fill="#734BBA" d="M370.362 480.399C368.585 480.755 366.885 481.359 365.132 481.811C356.253 484.103 347.296 483.403 339.372 478.614C332.819 474.653 328.471 468.27 326.69 460.878C324.841 453.201 325.945 445.316 330.145 438.59C333.809 432.722 339.544 428.296 346.376 426.885C355.352 425.03 362.753 428.329 370.07 433.01L369.924 463.578C369.908 468.897 369.331 475.208 370.362 480.399Z"/>
	<path fill="#040972" d="M481.225 161.647C494.503 160.561 514.226 163.696 527.052 167.233C556.578 175.376 582.931 190.398 598.319 217.867C608.535 236.106 608.469 256.682 602.844 276.377C602.358 272.659 601.773 269.069 600.719 265.461C592.847 238.521 571.875 213.862 547.291 200.545C549.76 204.845 552.131 209.141 554.057 213.72C559.238 226.038 568.079 252.891 566.565 265.716L566.712 266.181C557.182 255.312 550.7 248.324 539.14 239.656C499.764 210.128 438.695 192.72 389.761 199.722C401.145 194.542 413.432 190.311 425.639 187.588C452.591 181.576 490.243 179.681 516.484 188.939C509.857 178.934 500.625 169.989 489.677 164.851C486.949 163.571 484.016 162.782 481.225 161.647Z"/>
	<defs>
		<linearGradient id="gradient_2" gradientUnits="userSpaceOnUse" x1="702.88007" y1="403.5867" x2="658.29102" y2="243.14488">
			<stop offset="0" stop-color="#0D076C"/>
			<stop offset="1" stop-color="#172F8F"/>
		</linearGradient>
	</defs>
	<path fill="url(#gradient_2)" d="M686.385 235.276C694.767 243.579 700.112 251.632 705.768 261.912C708.562 269.182 710.904 276.456 712.079 284.184C718.018 323.247 702.829 373.734 688.103 409.764L685.09 408.771C675.312 407.658 669.395 409.345 661.271 414.544L661.078 414.115C658.948 410.616 660.324 378.513 659.596 371.495C658.719 363.027 655.137 354.899 654.711 346.428C654.275 337.759 655.721 328.823 655.744 320.09C655.793 301.334 650.254 284.517 636.865 271.051C653.68 274.004 667.338 281.84 679.236 293.968C676.891 286.037 672.942 277.551 667.679 271.123C661.842 263.994 653.945 259.693 644.784 258.748C654.673 249.222 672.382 236.596 686.385 235.276Z"/>
	<path fill="#03003D" d="M661.078 414.115C660.8 404.872 664.163 395.065 666.906 386.309C675.218 359.781 681.024 337.445 675.191 309.337C687.145 337.864 691.812 364.984 687.139 395.821C686.495 400.073 686.175 404.623 685.09 408.771C675.312 407.658 669.395 409.345 661.271 414.544L661.078 414.115Z"/>
	<path fill="#978DD2" d="M429.712 272.692C442.724 277.446 455.22 283.481 468.39 287.862C449.469 301.302 436.271 325.252 428.616 346.847C426.527 352.743 425.281 358.841 423.324 364.736L423.876 365.423C424.001 372.033 425.037 380.401 423.467 386.813Q423.313 397.099 423.523 407.383C422.909 419.987 424.313 432.789 424.792 445.4C425.84 472.971 427.183 500.694 427.589 528.273C411.102 512.048 395.684 494.339 378.605 478.776L378.099 374.24C378.1 351.717 378.452 329.106 377.816 306.592C385.161 301.104 393.275 296.441 400.938 291.395C410.473 285.116 419.781 278.332 429.712 272.692Z"/>
	<path fill="#03003D" d="M423.467 386.813C413.863 388.039 406.454 390.15 397.361 391.708C396.548 391.847 396.152 391.851 395.381 391.575C394.789 390.485 394.699 390.459 394.912 389.253C398.24 384.837 418.741 366.474 422.544 364.365L423.324 364.736L423.876 365.423C424.001 372.033 425.037 380.401 423.467 386.813Z"/>
	<path fill="#F5DAD5" d="M468.39 287.862C511.016 300.247 548.778 309.96 590.798 287.027C595.399 284.516 599.723 281.52 603.971 278.459C624.791 289.223 640.367 309.638 647.465 331.808C649.745 338.928 651.488 346.234 652.019 353.703C652.615 362.094 652.231 370.672 652.2 379.091L651.974 424.258L651.976 456.686C651.983 462.045 652.376 467.748 651.853 473.058C651.557 476.065 650.56 478.468 649.182 481.128C634.749 508.983 621.702 518.352 598.994 537.873C585.8 522.214 571.787 513.003 551.535 508.933C547.427 508.108 543.164 507.971 539.118 507.158C540.159 506.595 541.543 506.815 542.717 506.818L542.61 506.539C540.48 506.509 538.346 506.508 536.217 506.428Q537.131 505.52 538.028 504.595L537.837 503.557C536.694 504.627 535.871 505.633 534.221 505.764C531.453 505.026 529.387 502.465 526.873 501.033C523.061 501.062 518.507 500.619 515.544 503.53C514.83 504.232 514.231 505.07 513.645 505.878C512.302 505.8 511.749 505.215 510.65 504.5L511.166 506.259L509.516 506.955C483.806 506.934 467.455 508.394 448.138 527.612C444.633 531.1 441.457 534.846 438.318 538.658C434.684 535.345 430.718 532.075 427.589 528.273C427.183 500.694 425.84 472.971 424.792 445.4C424.313 432.789 422.909 419.987 423.523 407.383Q423.313 397.099 423.467 386.813C425.037 380.401 424.001 372.033 423.876 365.423L423.324 364.736C425.281 358.841 426.527 352.743 428.616 346.847C436.271 325.252 449.469 301.302 468.39 287.862Z"/>
	<path fill="#BE98D1" d="M508.291 471.253C508.151 475.409 506.966 479.417 506.818 483.573C510.665 487.625 515.234 489.312 520.785 489.493C528.955 489.76 536.711 486.275 543.937 486.341C545.909 488.151 549.207 490.679 549.413 493.569C549.505 494.858 548.945 495.943 548.018 496.793C544.878 499.672 540.494 500.206 537.837 503.557C536.694 504.627 535.871 505.633 534.221 505.764C531.453 505.026 529.387 502.465 526.873 501.033C523.061 501.062 518.507 500.619 515.544 503.53C514.83 504.232 514.231 505.07 513.645 505.878C512.302 505.8 511.749 505.215 510.65 504.5C506.694 499.878 495.395 499.491 493.688 492.614C493.167 490.515 505.993 476.093 508.025 471.825C508.116 471.636 508.202 471.444 508.291 471.253Z"/>
	<path fill="#040972" d="M423.876 365.423C444.075 368.513 464.623 370.576 484.946 372.695L484.966 395.494C480.058 394.366 475.231 393.045 470.388 391.673C468.276 393.975 468.548 396.58 465.717 398.75C461.443 394.506 456.285 392.448 450.588 390.869C450.062 390.203 449.714 389.182 449.342 388.408C440.752 388.668 432.24 386.16 423.467 386.813C425.037 380.401 424.001 372.033 423.876 365.423Z"/>
	<path fill="#BE98D1" d="M449.342 388.408C456.306 389.119 463.697 389.496 470.388 391.673C468.276 393.975 468.548 396.58 465.717 398.75C461.443 394.506 456.285 392.448 450.588 390.869C450.062 390.203 449.714 389.182 449.342 388.408Z"/>
	<path fill="#FDFDFE" d="M574.314 427.001C572.034 426.736 571.079 425.908 569.651 424.087C566.806 420.459 565.802 415.048 566.515 410.543C567.336 405.357 570.465 400.592 574.77 397.621C580.022 393.994 586.543 392.976 592.751 394.205C598.265 395.297 603.583 397.605 606.706 402.498C609.98 407.629 610.581 414.362 609.042 420.166C608.37 422.701 607.095 425.76 604.719 427.15C603.41 427.916 602.509 427.841 601.111 427.417C599.571 428.536 598.418 430.517 596.766 431.734C593.705 433.991 589.545 435.888 585.662 435.307C580.802 434.579 577.041 430.812 574.314 427.001Z"/>
	<path fill="#040972" d="M574.314 427.001C572.559 422.702 571.376 418.12 573.241 413.623C574.833 409.783 578.393 406.477 582.212 404.914C586.027 403.352 590.753 404.177 594.432 405.764C596.848 406.806 598.726 407.907 599.668 410.468L599.491 411.026L598.931 410.986C596.783 410.855 595.046 410.865 593.35 412.386C592.069 413.535 591.385 415.239 591.346 416.944C591.309 418.596 591.876 420.739 593.071 421.932C593.967 422.828 595.116 423.213 596.377 423.117C598.219 422.977 601.301 421.369 602.874 421.899C603.057 423.776 602.004 425.801 601.111 427.417C599.571 428.536 598.418 430.517 596.766 431.734C593.705 433.991 589.545 435.888 585.662 435.307C580.802 434.579 577.041 430.812 574.314 427.001Z"/>
	<path fill="#040972" d="M598.347 366.691C599.739 366.355 601.535 366.385 602.981 366.262C611.961 371.912 620.228 379.556 628.432 386.316L627.737 397.088C607.706 388.484 601.195 386.232 579.122 387.828C567.714 388.668 557.171 391.275 546.511 395.304C546.05 387.901 546.087 380.551 546.122 373.136C563.537 371.546 581.011 369.014 598.347 366.691Z"/>
	<path fill="#FDFDFE" d="M423.467 386.813C432.24 386.16 440.752 388.668 449.342 388.408C449.714 389.182 450.062 390.203 450.588 390.869C456.285 392.448 461.443 394.506 465.717 398.75C469.895 405.392 473.282 411.316 471.366 419.483C470.483 423.247 468.502 427.08 465.063 429.079C463.379 430.058 461.954 430.442 460.021 430.344C456.982 433.289 453.295 435.722 448.884 435.541C444.149 435.348 439.919 432.313 436.888 428.901C436.34 428.98 435.808 429.083 435.248 429.031C432.937 428.816 430.339 426.039 429.088 424.265C425.019 418.496 424.194 412.74 425.312 405.99C424.707 406.607 424.389 407.212 423.523 407.383Q423.313 397.099 423.467 386.813Z"/>
	<path fill="#F5DAD5" d="M423.467 386.813C432.24 386.16 440.752 388.668 449.342 388.408C449.714 389.182 450.062 390.203 450.588 390.869C443.062 390.597 435.442 393.858 429.993 398.986C427.557 401.278 427.044 403.417 425.312 405.99C424.707 406.607 424.389 407.212 423.523 407.383Q423.313 397.099 423.467 386.813Z"/>
	<path fill="#03003D" d="M436.888 428.901C434.587 423.855 433.443 418.721 435.404 413.295C436.818 409.384 439.891 405.612 443.767 403.948C446.877 402.613 450.461 402.817 453.531 404.165C456.48 405.458 459.314 407.36 461.239 409.96L461.472 411.244C458.648 411.098 455.452 410.644 453.196 412.747C452.044 413.82 451.403 415.25 451.386 416.836C451.366 418.732 452.161 420.521 453.516 421.835Q453.76 422.07 454.027 422.277Q454.294 422.485 454.581 422.664Q454.869 422.843 455.173 422.99Q455.478 423.138 455.796 423.253Q456.114 423.368 456.442 423.45Q456.771 423.531 457.106 423.578Q457.441 423.624 457.779 423.636Q458.117 423.647 458.455 423.623C460.873 423.438 462.473 422.002 464.137 420.388C463.108 423.96 462.055 427.185 460.021 430.344C456.982 433.289 453.295 435.722 448.884 435.541C444.149 435.348 439.919 432.313 436.888 428.901Z"/>
	<path fill="#040972" d="M0 458.335L197.125 458.513C235.715 458.528 274.363 458.222 312.948 458.866C312.889 471.37 315.154 481.57 324.306 490.682C333.291 499.628 346.364 504.081 358.903 504.015C362.888 503.993 366.66 503.426 370.538 502.554C370.924 513.227 370.857 523.881 370.976 534.556C370.931 542.118 369.645 558.196 371.773 565.06C372.752 568.215 374.963 571.047 377.251 573.381C389.714 586.087 405.702 595.325 418.345 607.971L418.468 629.551L418.439 674.745C416.998 675.188 415.571 675.724 414.072 675.906C400.783 682.525 386.198 688.87 372.005 693.235C372.038 700.389 371.983 707.555 372.349 714.701C357.444 719.703 342.097 723.284 327.075 727.882C320.717 734.881 315.475 743.529 310.094 751.299C279.818 795.016 265.727 837.295 268.233 890.544C269.806 923.959 278.032 959.47 290.618 990.449Q295.253 1001.71 300.472 1012.72C302.225 1016.44 304.362 1020.19 305.876 1024L248.278 1024L92.5352 1024L0 1024L0 749.042L0 630.677L0 534.574L0 458.335Z"/>
	<path fill="#88CEF6" d="M231.359 754.851C263.434 746.42 295.047 736.393 327.075 727.882C320.717 734.881 315.475 743.529 310.094 751.299C279.818 795.016 265.727 837.295 268.233 890.544C269.806 923.959 278.032 959.47 290.618 990.449Q295.253 1001.71 300.472 1012.72C302.225 1016.44 304.362 1020.19 305.876 1024L248.278 1024Q246.256 1015.77 244.417 1007.5Q242.579 999.231 240.925 990.921Q239.271 982.611 237.803 974.267Q236.335 965.922 235.053 957.547Q233.771 949.172 232.676 940.771Q231.581 932.369 230.673 923.945Q229.765 915.521 229.045 907.079Q228.326 898.637 227.794 890.181Q227.263 881.725 226.92 873.26Q226.576 864.794 226.422 856.323Q226.268 847.851 226.302 839.379Q226.336 830.906 226.56 822.437Q226.783 813.967 227.194 805.504Q227.606 797.042 228.206 788.59Q228.806 780.139 229.595 771.703Q230.383 763.267 231.359 754.851Z"/>
	<path fill="#F0D9B4" d="M0 749.042L140.586 749.551C147.126 749.555 183.119 748.687 185.97 749.61C178.275 754.762 171.255 760.332 164.328 766.473C157.626 773.014 151.09 779.756 145.955 787.638C126.286 821.874 118.56 859.533 109.769 897.607C106.024 917.19 101.739 937.17 99.702 956.999C96.7194 979.186 93.4131 1001.61 92.5352 1024L0 1024L0 749.042Z"/>
	<path fill="#ECBC9F" d="M13.9514 799.637C21.3646 799.008 38.7417 798.344 45.1255 801.158C47.2448 802.092 49.8347 803.622 50.423 806.056C50.9882 808.395 49.5466 810.99 48.174 812.776C45.7496 815.931 42.2462 816.595 38.5391 817.167C30.6777 818.127 14.3941 818.763 7.29581 815.582C5.0515 814.576 2.66017 812.863 2.01737 810.346C1.56716 808.583 2.11755 806.711 3.10777 805.237C5.69613 801.382 9.6906 800.421 13.9514 799.637Z"/>
	<path fill="#ECBC9F" d="M145.955 787.638C140.046 784.146 97.8461 790.391 87.8117 783.585C86.0398 782.383 84.4484 780.571 84.1732 778.374C83.8974 776.173 84.73 774.087 86.105 772.395C88.0604 769.99 91.0066 768.681 93.9829 768.064C100.212 766.772 107.43 767.435 113.813 767.414C122.6 767.384 131.38 767.028 140.168 766.986C147.893 766.949 155.892 767.362 163.575 766.556L164.328 766.473C157.626 773.014 151.09 779.756 145.955 787.638Z"/>
	<path fill="#ECBC9F" d="M64.9524 921.011C62.1091 916.994 57.8662 914.372 57.6189 908.99C57.5127 906.677 58.3955 904.59 60.0548 902.99C62.7828 900.36 66.7485 898.729 70.4207 897.998C78.8941 896.31 100.044 897.531 109.769 897.607C106.024 917.19 101.739 937.17 99.702 956.999C77.3145 956.41 54.6916 958.24 32.3413 956.867C25.5243 956.448 18.8592 954.275 14.3172 948.873C12.3492 946.532 10.9804 943.628 11.3688 940.51C11.7496 937.453 13.6801 934.894 15.84 932.817C29.7777 919.415 50.2442 933.128 64.4365 921.442L64.9524 921.011Z"/>
	<defs>
		<linearGradient id="gradient_3" gradientUnits="userSpaceOnUse" x1="187.40825" y1="591.11731" x2="219.59225" y2="740.47705">
			<stop offset="0" stop-color="#0099E1"/>
			<stop offset="1" stop-color="#0AC3EA"/>
		</linearGradient>
	</defs>
	<path fill="url(#gradient_3)" d="M0 630.677C14.2583 631.325 28.7953 630.737 43.0814 630.74L133.299 630.539L418.468 629.551L418.439 674.745C416.998 675.188 415.571 675.724 414.072 675.906C399.88 677.985 385.795 682.101 371.932 685.771Q338.252 694.487 305.009 704.742Q280.709 712.087 256.618 720.094C243.304 724.376 229.802 728.445 216.86 733.774C206.056 738.223 196.04 743.731 185.97 749.61C183.119 748.687 147.126 749.555 140.586 749.551L0 749.042L0 630.677Z"/>
	<path fill="#15E4ED" d="M161.81 676.213C182.03 673.257 202.982 681.429 222.787 684.481C242.692 687.549 258.884 689.239 278.991 690.15C273.495 692.113 242.622 690.757 234.75 690.753L178.25 690.907L124.244 690.651C103.486 690.694 82.6757 691.035 61.927 690.387L62.0781 689.937L60.1836 690.209L62.1235 690.174L62.0185 689.619C62.7576 690.186 68.7238 689.303 69.9546 689.193Q95.6704 686.786 121.168 682.667C134.749 680.413 148.074 677.488 161.81 676.213Z"/>
	<path fill="#1A7DE8" d="M0 458.335L197.125 458.513C235.715 458.528 274.363 458.222 312.948 458.866C312.889 471.37 315.154 481.57 324.306 490.682C333.291 499.628 346.364 504.081 358.903 504.015C362.888 503.993 366.66 503.426 370.538 502.554C370.924 513.227 370.857 523.881 370.976 534.556C370.931 542.118 369.645 558.196 371.773 565.06C372.752 568.215 374.963 571.047 377.251 573.381C389.714 586.087 405.702 595.325 418.345 607.971L418.468 629.551L133.299 630.539L43.0814 630.74C28.7953 630.737 14.2583 631.325 0 630.677L0 534.574L0 458.335Z"/>
	<path fill="#15E4ED" d="M273.731 588.278C288.923 587.529 305.559 587.207 320.594 589.333C312.513 589.928 304.475 590.011 296.375 590.079C281.092 590.284 265.373 590.275 250.132 589.148C257.443 587.743 266.214 588.427 273.731 588.278Z"/>
	<path fill="#DDECF5" d="M205.561 553.762C214.646 553.448 222.792 552.382 231.022 557.175C221.696 556.018 211.929 556.298 202.528 556.126L152.44 555.397C146.285 555.066 134.225 553.918 128.789 554.97C128.483 555.029 128.18 555.099 127.875 555.164L127.035 554.002C126.747 555 126.751 554.498 127.035 555.509L127.879 554.275C132.296 555.054 141.432 554.146 146.493 554.137L205.561 553.762Z"/>
	<path fill="#1645C8" d="M0 458.335L197.125 458.513C235.715 458.528 274.363 458.222 312.948 458.866C312.889 471.37 315.154 481.57 324.306 490.682C333.291 499.628 346.364 504.081 358.903 504.015C362.888 503.993 366.66 503.426 370.538 502.554C370.924 513.227 370.857 523.881 370.976 534.556C355.48 534.9 339.899 534.432 324.396 534.259L269.095 534.143L0 534.574L0 458.335Z"/>
	<defs>
		<linearGradient id="gradient_4" gradientUnits="userSpaceOnUse" x1="863.57495" y1="202.99867" x2="851.96332" y2="463.13589">
			<stop offset="0" stop-color="#2A9BF8"/>
			<stop offset="1" stop-color="#15C9FD"/>
		</linearGradient>
	</defs>
	<path fill="url(#gradient_4)" d="M830.049 200.509L964 136.963C983.946 127.584 1004.22 118.997 1024 109.232L1024 299.074L1024 315.936L1024 600.704L1024 619.075L1024 631.465L1024 749.046L1024 836.922L931.679 836.753C926.26 836.768 899.786 837.588 896.921 836.742C896.515 836.622 896.203 836.291 895.844 836.066C889.853 818.539 882.615 802.792 873.534 786.659C870.527 783.133 865.695 772.827 862.45 767.898Q856.192 758.323 849.164 749.297C847.447 747.522 845.571 745.197 843.329 744.126C833.735 739.544 822.512 736.785 812.369 733.433Q779.776 722.315 746.815 712.343L690.903 694.637C680.115 691.173 669.431 687.201 658.435 684.441C657.707 686.608 657.087 689.448 655.569 691.197C640.322 687.392 625.182 681.765 610.376 676.507L608.745 676.066C606.717 673.617 607.864 663.611 607.911 660.041L607.871 653.729L607.671 613.603Q613.661 607.285 619.789 601.1C622.848 596.603 627.805 592.381 631.616 588.415Q641.952 577.807 651.815 566.758C654.891 562.949 658.226 559.366 661.524 555.749L661.319 535.548C660.849 525.486 661.403 515.098 661.4 505.003C671.639 505.229 681.192 503.318 689.794 497.542C703.512 488.328 710.381 473.871 713.42 458.082C714.019 446.454 713.121 435.493 707.005 425.279C702.919 418.455 696.009 411.727 688.103 409.764C702.829 373.734 718.018 323.247 712.079 284.184C710.904 276.456 708.562 269.182 705.768 261.912C712.265 258.102 719.546 255.341 726.356 252.109C745.424 243.061 765.219 234.501 783.508 223.957C762.109 223.641 740.682 223.92 719.28 223.892C718.905 216.381 719.063 208.794 719.049 201.275Q756.373 201.059 793.696 201.355C801.703 201.391 817.602 200.521 824.481 201.712L824.86 202.726C826.6 202.755 828.479 201.23 830.049 200.509Z"/>
	<path fill="#1A7DE8" d="M830.049 200.509L964 136.963C983.946 127.584 1004.22 118.997 1024 109.232L1024 299.074C1019.32 296.173 1014.12 293.849 1009.19 291.398Q993.531 283.793 977.98 275.969L870.394 220.767C857.14 214.044 842.628 208.399 830.049 200.509Z"/>
	<path fill="#1645C8" d="M713.42 458.082L895.873 457.991C892.831 464.943 890.24 472.079 887.274 479.063C882.99 489.152 878.361 499.124 874.222 509.268C860.634 514.902 814.014 526.842 805.612 533.38L803.641 535.782C800.663 541.258 789.485 565.37 786.851 568.064C779.071 566.956 766.46 567.812 758.217 567.828L692.027 568.494C678.857 568.583 665.428 569.151 652.323 567.62L651.815 566.758C654.891 562.949 658.226 559.366 661.524 555.749L661.319 535.548C660.849 525.486 661.403 515.098 661.4 505.003C671.639 505.229 681.192 503.318 689.794 497.542C703.512 488.328 710.381 473.871 713.42 458.082Z"/>
	<path fill="#1A7DE8" d="M661.319 535.548L762.216 535.961C775.955 535.969 789.939 535.323 803.641 535.782C800.663 541.258 789.485 565.37 786.851 568.064C779.071 566.956 766.46 567.812 758.217 567.828L692.027 568.494C678.857 568.583 665.428 569.151 652.323 567.62L651.815 566.758C654.891 562.949 658.226 559.366 661.524 555.749L661.319 535.548Z"/>
	<path fill="#15E4ED" d="M694.952 553.213C702.103 552.586 710.232 554.787 717.303 555.848C725.763 557.118 734.114 558.022 742.673 558.228C733.125 560.066 720.558 558.617 710.75 558.453C701.201 558.353 691.718 558.009 682.162 558.271C676.588 558.424 670.279 559.387 664.784 559.063C664.042 559.02 663.472 559.056 662.972 558.512C666.931 556.592 688.949 553.813 694.952 553.213Z"/>
	<path fill="#040972" d="M1024 315.936L1024 600.704L833.801 600.912L791.108 600.829C784.542 600.816 776.844 601.6 770.446 600.329C774.242 590.056 782.111 578.56 786.851 568.064C789.485 565.37 800.663 541.258 803.641 535.782L805.612 533.38C814.014 526.842 860.634 514.902 874.222 509.268C878.361 499.124 882.99 489.152 887.274 479.063C890.24 472.079 892.831 464.943 895.873 457.991C897.866 451.812 900.97 445.625 903.499 439.625C908.55 427.639 913.596 415.517 918.958 403.675C928.748 400.694 938.377 396.057 947.867 392.196C961.87 386.498 976.241 381.135 989.833 374.514C993.754 368.75 997.102 362.371 1000.61 356.336Q1012.2 336.074 1024 315.936Z"/>
	<path fill="#133093" d="M805.612 533.38C814.014 526.842 860.634 514.902 874.222 509.268Q888.725 524.444 905.175 537.483C917.964 547.666 931.222 557.044 942.922 568.551C928.919 564.083 914.536 560.639 900.332 556.868C884.341 552.623 868.395 548.083 852.28 544.325L821.564 537.378C816.387 536.21 810.485 535.427 805.612 533.38Z"/>
	<defs>
		<linearGradient id="gradient_5" gradientUnits="userSpaceOnUse" x1="825.96442" y1="608.05347" x2="809.58575" y2="743.16132">
			<stop offset="0" stop-color="#0487E5"/>
			<stop offset="1" stop-color="#09BFED"/>
		</linearGradient>
	</defs>
	<path fill="url(#gradient_5)" d="M651.815 566.758L652.323 567.62C665.428 569.151 678.857 568.583 692.027 568.494L758.217 567.828C766.46 567.812 779.071 566.956 786.851 568.064C782.111 578.56 774.242 590.056 770.446 600.329C776.844 601.6 784.542 600.816 791.108 600.829L833.801 600.912L1024 600.704L1024 619.075L1024 631.465L1024 749.046L1024 836.922L931.679 836.753C926.26 836.768 899.786 837.588 896.921 836.742C896.515 836.622 896.203 836.291 895.844 836.066C889.853 818.539 882.615 802.792 873.534 786.659C870.527 783.133 865.695 772.827 862.45 767.898Q856.192 758.323 849.164 749.297C847.447 747.522 845.571 745.197 843.329 744.126C833.735 739.544 822.512 736.785 812.369 733.433Q779.776 722.315 746.815 712.343L690.903 694.637C680.115 691.173 669.431 687.201 658.435 684.441C657.707 686.608 657.087 689.448 655.569 691.197C640.322 687.392 625.182 681.765 610.376 676.507L608.745 676.066C606.717 673.617 607.864 663.611 607.911 660.041L607.871 653.729L607.671 613.603Q613.661 607.285 619.789 601.1C622.848 596.603 627.805 592.381 631.616 588.415Q641.952 577.807 651.815 566.758Z"/>
	<path fill="#040972" d="M610.376 676.507C616.561 677.068 622.743 678.6 628.886 679.59C638.723 681.175 648.689 682.358 658.435 684.441C657.707 686.608 657.087 689.448 655.569 691.197C640.322 687.392 625.182 681.765 610.376 676.507Z"/>
	<path fill="#15E4ED" d="M607.871 653.729C616.363 652.204 625.405 652.099 634.016 651.573C676.131 649 719.135 650.006 760.45 659.089C752.269 658.701 744.169 657.435 735.995 656.962C721.246 656.108 706.401 656.275 691.637 656.584Q666.905 657.012 642.217 658.539C630.844 659.151 619.295 660.106 607.911 660.041L607.871 653.729Z"/>
	<path fill="#15E4ED" d="M922.333 681.219C945.945 679.728 969.672 686.642 992.927 689.609C980.121 692.098 965.623 690.948 952.532 691.203C923.803 691.764 895.101 691.976 866.375 692.911C842.981 693.026 819.376 694.441 796.018 692.896C803.371 691.407 811.37 691.763 818.864 691.372Q834.059 690.469 849.214 689.04C873.687 686.867 897.737 682.481 922.333 681.219Z"/>
	<path fill="#F0D9B4" d="M1024 749.046L1024 836.922L931.679 836.753C926.26 836.768 899.786 837.588 896.921 836.742C896.515 836.622 896.203 836.291 895.844 836.066C889.853 818.539 882.615 802.792 873.534 786.659C870.527 783.133 865.695 772.827 862.45 767.898Q856.192 758.323 849.164 749.297L1024 749.046Z"/>
	<path fill="#ECBC9F" d="M952.795 799.214C960.072 799.069 969.642 798.142 976.215 801.558C978.108 802.542 979.992 804.035 980.395 806.259C980.743 808.176 979.917 810.182 978.807 811.708C975.865 815.75 972.164 816.825 967.494 817.43C959.752 817.538 948.837 818.873 942.489 813.709C940.958 812.463 939.819 810.73 939.726 808.715C939.633 806.696 940.48 804.76 941.813 803.275C944.926 799.808 948.421 799.36 952.795 799.214Z"/>
	<path fill="#ECBC9F" d="M862.45 767.898C867.82 767.126 899.504 767.276 904.668 768.157C907.863 768.702 911.228 769.904 913.856 771.835C914.995 772.672 916.125 773.815 916.435 775.247C916.908 777.434 915.394 779.726 914.083 781.325C911.494 784.483 908.78 785.598 904.751 785.937C895.958 786.676 881 784.787 873.534 786.659C870.527 783.133 865.695 772.827 862.45 767.898Z"/>
	<path fill="#0588E0" d="M651.815 566.758L652.323 567.62C665.428 569.151 678.857 568.583 692.027 568.494L758.217 567.828C766.46 567.812 779.071 566.956 786.851 568.064C782.111 578.56 774.242 590.056 770.446 600.329C776.844 601.6 784.542 600.816 791.108 600.829L833.801 600.912L1024 600.704L1024 619.075L1024 631.465C1009.89 631.103 995.611 631.603 981.483 631.611L863.575 632.092L608.687 631.255C608.386 625.631 608.325 619.831 608.671 614.21C611.811 609.724 616.41 606.204 620.001 602.048L619.789 601.1C622.848 596.603 627.805 592.381 631.616 588.415Q641.952 577.807 651.815 566.758Z"/>
	<path fill="#FDFDFE" d="M660.818 619.044C673.356 613.109 686.038 606.578 699.28 602.378C717.719 596.531 737.752 595.815 756.878 597.701C761.315 598.138 766.416 598.249 770.446 600.329C776.844 601.6 784.542 600.816 791.108 600.829L833.801 600.912L1024 600.704L1024 619.075C977.118 618.482 930.162 618.891 883.273 618.957L660.818 619.044Z"/>
	<path fill="#FDFDFE" d="M418.345 607.971L437.292 623.971C449.037 634.076 460.721 644.8 474.779 651.638C487.744 657.024 501.695 660.476 515.791 660.429Q518.195 660.399 520.596 660.266Q522.996 660.133 525.389 659.898Q527.782 659.663 530.163 659.326Q532.543 658.989 534.907 658.55Q537.271 658.112 539.614 657.573Q541.957 657.034 544.275 656.395Q546.593 655.756 548.882 655.019Q551.17 654.282 553.425 653.448Q555.68 652.614 557.898 651.684Q560.115 650.754 562.29 649.73Q564.466 648.707 566.596 647.591Q568.726 646.475 570.806 645.27Q572.886 644.064 574.913 642.771Q576.94 641.478 578.909 640.099Q580.879 638.72 582.788 637.258Q584.697 635.797 586.542 634.255C594.011 627.973 600.788 620.536 607.671 613.603L607.871 653.729L607.911 660.041C607.864 663.611 606.717 673.617 608.745 676.066L610.376 676.507C625.182 681.765 640.322 687.392 655.569 691.197C657.087 689.448 657.707 686.608 658.435 684.441C669.431 687.201 680.115 691.173 690.903 694.637L746.815 712.343Q779.776 722.315 812.369 733.433C822.512 736.785 833.735 739.544 843.329 744.126C845.571 745.197 847.447 747.522 849.164 749.297Q856.192 758.323 862.45 767.898C865.695 772.827 870.527 783.133 873.534 786.659C882.615 802.792 889.853 818.539 895.844 836.066C896.203 836.291 896.515 836.622 896.921 836.742C899.786 837.588 926.26 836.768 931.679 836.753L1024 836.922L1024 1024L832.739 1024L636.246 1024L619.363 1024L618.883 1024L305.876 1024C304.362 1020.19 302.225 1016.44 300.472 1012.72Q295.253 1001.71 290.618 990.449C278.032 959.47 269.806 923.959 268.233 890.544C265.727 837.295 279.818 795.016 310.094 751.299C315.475 743.529 320.717 734.881 327.075 727.882C342.097 723.284 357.444 719.703 372.349 714.701C371.983 707.555 372.038 700.389 372.005 693.235C386.198 688.87 400.783 682.525 414.072 675.906C415.571 675.724 416.998 675.188 418.439 674.745L418.468 629.551L418.345 607.971Z"/>
	<path fill="#040972" d="M618.883 1024C622.75 991.985 630.622 959.112 636.395 927.243L645.457 875.584C646.787 868.114 647.614 860.231 649.546 852.916C650.601 848.923 651.663 845.676 654.701 842.751C661.952 835.771 670.923 836.814 680.156 836.962C673.923 840.55 668.52 844.012 666.441 851.392C665.999 852.962 665.682 854.573 665.36 856.172C661.986 863.998 661.05 873.896 659.65 882.279L654.311 914.594C650.809 935.849 646.496 956.927 642.905 978.156L637.348 1010.47C636.783 1013.79 636.7 1017.4 635.976 1020.63C635.753 1021.63 635.491 1022.39 634.722 1023.08L633.332 1023.39L636.246 1024L619.363 1024L618.883 1024Z"/>
	<path fill="#1F56CB" d="M633.332 1023.39L636.246 1024L619.363 1024C623.221 1022.62 629.205 1023.4 633.332 1023.39Z"/>
	<path fill="#DDECF5" d="M351.82 855.971C357.721 856.865 367.101 862.234 373.106 864.572C382.404 868.192 392.571 871.038 402.273 873.423C417.286 877.113 432.655 880.536 447.964 882.716C505.828 890.955 564.099 884.99 619.968 868.666C615.752 871.352 611.56 873.97 607.144 876.322C599.021 880.39 591.075 884.803 582.689 888.327C574.445 891.791 565.813 894.307 557.216 896.731C502.327 912.212 446.109 903.474 395.044 879.474C380.073 872.438 366.224 864.025 351.82 855.971Z"/>
	<path fill="#978DD2" d="M418.345 607.971L437.292 623.971C449.037 634.076 460.721 644.8 474.779 651.638C475.35 682.926 474.05 715.646 472.817 746.988C485.897 756.401 499.735 764.773 512.97 773.977Q512.476 781.269 512.223 788.574C505.416 787.732 498.985 786.004 492.708 783.215C482.34 778.608 472.186 771.757 462.287 766.132L394.818 727.45C387.462 723.237 380.132 718.026 372.349 714.701C371.983 707.555 372.038 700.389 372.005 693.235C386.198 688.87 400.783 682.525 414.072 675.906C415.571 675.724 416.998 675.188 418.439 674.745L418.468 629.551L418.345 607.971Z"/>
	<path fill="#1645C8" d="M658.435 684.441C669.431 687.201 680.115 691.173 690.903 694.637L746.815 712.343Q779.776 722.315 812.369 733.433C822.512 736.785 833.735 739.544 843.329 744.126C845.571 745.197 847.447 747.522 849.164 749.297Q856.192 758.323 862.45 767.898C865.695 772.827 870.527 783.133 873.534 786.659C882.615 802.792 889.853 818.539 895.844 836.066C890.893 837.454 875.362 836.552 869.34 836.583L803.616 836.939Q801.323 817.601 798.784 798.294C796.76 783.519 794.459 768.671 793.171 753.815C786.644 752.344 780.272 750.182 773.826 748.385L730.831 736.428L682.699 722.725C670.658 719.372 658.406 716.491 646.61 712.335Q651.31 701.859 655.569 691.197C657.087 689.448 657.707 686.608 658.435 684.441Z"/>
	<path fill="#F5DAD5" d="M607.671 613.603L607.871 653.729L607.911 660.041C607.864 663.611 606.717 673.617 608.745 676.066L610.376 676.507C625.182 681.765 640.322 687.392 655.569 691.197Q651.31 701.859 646.61 712.335C632.371 721.998 617.444 730.624 602.681 739.442L568.3 760.218C553.99 768.7 539.738 778.694 524.604 785.581C520.517 787.44 516.651 788.091 512.223 788.574Q512.476 781.269 512.97 773.977C499.735 764.773 485.897 756.401 472.817 746.988C474.05 715.646 475.35 682.926 474.779 651.638C487.744 657.024 501.695 660.476 515.791 660.429Q518.195 660.399 520.596 660.266Q522.996 660.133 525.389 659.898Q527.782 659.663 530.163 659.326Q532.543 658.989 534.907 658.55Q537.271 658.112 539.614 657.573Q541.957 657.034 544.275 656.395Q546.593 655.756 548.882 655.019Q551.17 654.282 553.425 653.448Q555.68 652.614 557.898 651.684Q560.115 650.754 562.29 649.73Q564.466 648.707 566.596 647.591Q568.726 646.475 570.806 645.27Q572.886 644.064 574.913 642.771Q576.94 641.478 578.909 640.099Q580.879 638.72 582.788 637.258Q584.697 635.797 586.542 634.255C594.011 627.973 600.788 620.536 607.671 613.603Z"/>
	<path fill="#1F56CB" d="M895.844 836.066C896.203 836.291 896.515 836.622 896.921 836.742C899.786 837.588 926.26 836.768 931.679 836.753L1024 836.922L1024 1024L832.739 1024L636.246 1024L633.332 1023.39L634.722 1023.08C635.491 1022.39 635.753 1021.63 635.976 1020.63C636.7 1017.4 636.783 1013.79 637.348 1010.47L642.905 978.156C646.496 956.927 650.809 935.849 654.311 914.594L659.65 882.279C661.05 873.896 661.986 863.998 665.36 856.172C665.682 854.573 665.999 852.962 666.441 851.392C668.52 844.012 673.923 840.55 680.156 836.962L803.616 836.939L869.34 836.583C875.362 836.552 890.893 837.454 895.844 836.066Z"/>
	<path fill="#040972" d="M865.45 932.654C871.812 932.192 878.313 934.42 883.346 938.283C889.581 943.069 893.234 950.247 894.067 957.991C894.857 965.332 892.862 972.534 888.141 978.27C882.762 984.804 875.85 987.603 867.624 988.309C861.851 988.417 856.309 987.349 851.37 984.189Q850.783 983.814 850.215 983.409Q849.648 983.005 849.102 982.572Q848.556 982.139 848.032 981.678Q847.509 981.218 847.01 980.732Q846.51 980.246 846.037 979.734Q845.563 979.223 845.116 978.689Q844.668 978.154 844.249 977.598Q843.83 977.041 843.439 976.464Q843.049 975.887 842.688 975.29Q842.327 974.694 841.997 974.08Q841.668 973.466 841.37 972.836Q841.072 972.206 840.806 971.562Q840.54 970.917 840.308 970.26Q840.075 969.603 839.876 968.935Q839.678 968.267 839.513 967.59Q839.349 966.913 839.219 966.228C837.849 958.833 839.767 951.152 844.053 945.038C849.156 937.76 856.866 934.006 865.45 932.654Z"/>
	<path fill="#133093" d="M665.36 856.172C668.787 862.252 677.12 869.009 682.215 874.068L709.375 901.073C750.329 942.156 790.5 984.231 832.739 1024L636.246 1024L633.332 1023.39L634.722 1023.08C635.491 1022.39 635.753 1021.63 635.976 1020.63C636.7 1017.4 636.783 1013.79 637.348 1010.47L642.905 978.156C646.496 956.927 650.809 935.849 654.311 914.594L659.65 882.279C661.05 873.896 661.986 863.998 665.36 856.172Z"/>
</svg>
